<?xml version="1.0" standalone="no"?>
<!DOCTYPE svg PUBLIC "-//W3C//DTD SVG 20010904//EN"
 "http://www.w3.org/TR/2001/REC-SVG-20010904/DTD/svg10.dtd">
<svg version="1.0" xmlns="http://www.w3.org/2000/svg"
 width="64.000000pt" height="64.000000pt" viewBox="0 0 64.000000 64.000000"
 preserveAspectRatio="xMidYMid meet">

<g transform="translate(0.000000,64.000000) scale(0.100000,-0.100000)"
fill="#000000" stroke="none">
<path d="M364 626 c-3 -8 -4 -23 -2 -33 3 -15 15 -18 77 -21 l74 -3 -151 -153
c-84 -84 -152 -157 -152 -164 0 -14 28 -42 42 -42 6 0 79 68 164 151 l153 152
3 -74 3 -74 30 0 30 0 3 124 c2 82 -1 128 -9 137 -17 21 -257 20 -265 0z"/>
<path d="M65 561 c-11 -5 -29 -19 -40 -31 -19 -21 -20 -36 -20 -246 l0 -224
28 -27 27 -28 208 -3 c126 -2 218 1 235 7 48 18 67 65 67 161 0 96 -7 113 -41
108 -23 -3 -24 -7 -27 -92 -2 -50 -8 -96 -14 -103 -14 -18 -388 -19 -406 -1
-18 18 -17 392 1 406 7 6 53 12 103 14 85 3 89 4 92 27 2 13 -2 28 -10 32 -17
11 -176 10 -203 0z"/>
</g>
</svg>
