<?xml version="1.0" encoding="UTF-8"?>
<svg xmlns="http://www.w3.org/2000/svg" xmlns:xlink="http://www.w3.org/1999/xlink" width="64px" height="64px" viewBox="0 0 64 64" version="1.1">
<g id="surface1">
<path style=" stroke:none;fill-rule:nonzero;fill:rgb(0%,0%,0%);fill-opacity:1;" d="M 23.5 1.300781 C 13.898438 4.5 7.199219 10.300781 3.300781 18.800781 C -2.800781 31.898438 0.5 47.199219 11.601562 56.898438 C 15.601562 60.5 22.898438 64.199219 24.199219 63.398438 C 24.601562 63.101562 25 60.898438 25 58.5 C 25 54.699219 24.699219 54.101562 22.398438 53.601562 C 19.199219 52.800781 12 47 12 45.199219 C 12 43 15.601562 43.898438 18.5 47 C 21.800781 50.5 23.5 50.800781 25 48.101562 C 26.398438 45.300781 26.398438 45.300781 21.601562 43.101562 C 19.199219 42.101562 16.398438 40 15.5 38.601562 C 13 34.800781 12.5 28.699219 14.398438 24.898438 C 15.300781 23.199219 16 20 16 17.898438 C 16 13.199219 17.101562 12.5 20.898438 14.5 C 22.898438 15.5 26.699219 16 32 16 C 37.300781 16 41.101562 15.5 43.101562 14.5 C 47 12.5 48 13.199219 48 18.101562 C 48 20.300781 48.699219 23.5 49.601562 25.199219 C 51.5 28.898438 51 34.800781 48.5 38.601562 C 47.601562 40 45 42 42.699219 43 L 38.601562 44.898438 L 38.898438 53.699219 C 39 58.5 39.5 62.800781 39.800781 63.199219 C 40.898438 64.300781 48.199219 60.601562 52.398438 56.898438 C 70.199219 41.300781 66.300781 13.101562 45.101562 3.199219 C 38.699219 0.300781 29.300781 -0.601562 23.5 1.300781 Z M 23.5 1.300781 "/>
</g>
</svg>
